<mxfile host="app.diagrams.net" modified="2022-11-15T23:41:53.772Z" agent="5.0 (Windows NT 10.0; Win64; x64) AppleWebKit/537.36 (KHTML, like Gecko) Chrome/107.0.0.0 Safari/537.36" etag="evELNY-mF8yGV7JP-yDR" version="20.5.3" type="github">
  <diagram id="C5RBs43oDa-KdzZeNtuy" name="Page-1">
    <mxGraphModel dx="1935" dy="482" grid="1" gridSize="10" guides="1" tooltips="1" connect="1" arrows="1" fold="1" page="1" pageScale="1" pageWidth="827" pageHeight="1169" math="0" shadow="0">
      <root>
        <mxCell id="WIyWlLk6GJQsqaUBKTNV-0" />
        <mxCell id="WIyWlLk6GJQsqaUBKTNV-1" parent="WIyWlLk6GJQsqaUBKTNV-0" />
        <mxCell id="x3BnDo08FVJliyD5rQEA-3" value="" style="edgeStyle=orthogonalEdgeStyle;rounded=0;orthogonalLoop=1;jettySize=auto;html=1;" edge="1" parent="WIyWlLk6GJQsqaUBKTNV-1" source="WIyWlLk6GJQsqaUBKTNV-3" target="x3BnDo08FVJliyD5rQEA-2">
          <mxGeometry relative="1" as="geometry" />
        </mxCell>
        <mxCell id="WIyWlLk6GJQsqaUBKTNV-3" value="Main" style="rounded=1;whiteSpace=wrap;html=1;fontSize=12;glass=0;strokeWidth=1;shadow=0;" parent="WIyWlLk6GJQsqaUBKTNV-1" vertex="1">
          <mxGeometry x="160" y="80" width="120" height="40" as="geometry" />
        </mxCell>
        <mxCell id="x3BnDo08FVJliyD5rQEA-10" value="" style="edgeStyle=orthogonalEdgeStyle;rounded=0;orthogonalLoop=1;jettySize=auto;html=1;" edge="1" parent="WIyWlLk6GJQsqaUBKTNV-1" source="x3BnDo08FVJliyD5rQEA-2" target="x3BnDo08FVJliyD5rQEA-9">
          <mxGeometry relative="1" as="geometry" />
        </mxCell>
        <mxCell id="x3BnDo08FVJliyD5rQEA-13" value="" style="edgeStyle=orthogonalEdgeStyle;rounded=0;orthogonalLoop=1;jettySize=auto;html=1;" edge="1" parent="WIyWlLk6GJQsqaUBKTNV-1" source="x3BnDo08FVJliyD5rQEA-2" target="x3BnDo08FVJliyD5rQEA-12">
          <mxGeometry relative="1" as="geometry" />
        </mxCell>
        <mxCell id="x3BnDo08FVJliyD5rQEA-2" value="&lt;div&gt;&lt;br&gt;&lt;/div&gt;&lt;div&gt;$(vHoraMinutoCarga) &amp;gt;= 530 AND $(vHoraMinutoCarga) &amp;lt;= 630&lt;/div&gt;" style="rhombus;whiteSpace=wrap;html=1;rounded=1;glass=0;strokeWidth=1;shadow=0;" vertex="1" parent="WIyWlLk6GJQsqaUBKTNV-1">
          <mxGeometry x="-32.5" y="180" width="505" height="90" as="geometry" />
        </mxCell>
        <mxCell id="x3BnDo08FVJliyD5rQEA-6" value="&lt;div style=&quot;color: rgb(252, 252, 250); background-color: rgb(45, 42, 46); font-family: Consolas, &amp;quot;Courier New&amp;quot;, monospace; font-weight: normal; font-size: 14px; line-height: 19px;&quot;&gt;&lt;div&gt;&lt;span style=&quot;color: #ff6188;&quot;&gt;//&lt;/span&gt;&lt;span style=&quot;color: #fcfcfa;&quot;&gt; Variables de apoyo definidas para las extracciones mensuales: &lt;/span&gt;&lt;/div&gt;&lt;div&gt;&lt;span style=&quot;color: #fcfcfa;&quot;&gt;LET vDate &lt;/span&gt;&lt;span style=&quot;color: #ff6188;&quot;&gt;=&lt;/span&gt;&lt;span style=&quot;color: #fcfcfa;&quot;&gt; TODAY&lt;/span&gt;&lt;span style=&quot;color: #939293;&quot;&gt;()&lt;/span&gt;&lt;span style=&quot;color: #fcfcfa;&quot;&gt;;&lt;/span&gt;&lt;/div&gt;&lt;div&gt;&lt;span style=&quot;color: #fcfcfa;&quot;&gt;LET vDiaActual &lt;/span&gt;&lt;span style=&quot;color: #ff6188;&quot;&gt;=&lt;/span&gt;&lt;span style=&quot;color: #fcfcfa;&quot;&gt; &lt;/span&gt;&lt;span style=&quot;color: #a9dc76;&quot;&gt;DAY&lt;/span&gt;&lt;span style=&quot;color: #fcfcfa;&quot;&gt;(vDate);&lt;/span&gt;&lt;/div&gt;&lt;div&gt;&lt;span style=&quot;color: #fcfcfa;&quot;&gt;LET vMesActual &lt;/span&gt;&lt;span style=&quot;color: #ff6188;&quot;&gt;=&lt;/span&gt;&lt;span style=&quot;color: #fcfcfa;&quot;&gt; &lt;/span&gt;&lt;span style=&quot;color: #ff6188;&quot;&gt;DATE&lt;/span&gt;&lt;span style=&quot;color: #fcfcfa;&quot;&gt;(vDate, &lt;/span&gt;&lt;span style=&quot;color: #939293;&quot;&gt;&#39;&lt;/span&gt;&lt;span style=&quot;color: #ffd866;&quot;&gt;M&lt;/span&gt;&lt;span style=&quot;color: #939293;&quot;&gt;&#39;&lt;/span&gt;&lt;span style=&quot;color: #fcfcfa;&quot;&gt;);&lt;/span&gt;&lt;/div&gt;&lt;br&gt;&lt;br&gt;&lt;div&gt;&lt;span style=&quot;color: #fcfcfa;&quot;&gt;$(&lt;/span&gt;&lt;span style=&quot;color: #ff6188;&quot;&gt;Include=&lt;/span&gt;&lt;span style=&quot;color: #fcfcfa;&quot;&gt;..\Script\Periodo_Inicial.qvs); &lt;/span&gt;&lt;/div&gt;&lt;br&gt;&lt;div&gt;&lt;span style=&quot;color: #fcfcfa;&quot;&gt;LET vFechaInicio &lt;/span&gt;&lt;span style=&quot;color: #ff6188;&quot;&gt;=&lt;/span&gt;&lt;span style=&quot;color: #fcfcfa;&quot;&gt; &lt;/span&gt;&lt;span style=&quot;color: #939293;&quot;&gt;&#39;&lt;/span&gt;&lt;span style=&quot;color: #ffd866;&quot;&gt;202201&lt;/span&gt;&lt;span style=&quot;color: #939293;&quot;&gt;&#39;&lt;/span&gt;&lt;span style=&quot;color: #fcfcfa;&quot;&gt;; &amp;nbsp; &amp;nbsp;&lt;/span&gt;&lt;span style=&quot;color: #ff6188;&quot;&gt;//&lt;/span&gt;&lt;span style=&quot;color: #fcfcfa;&quot;&gt; Se utiliza en caso de necesitar extraer informaci贸napertir de otros meses&lt;/span&gt;&lt;/div&gt;&lt;div&gt;&lt;span style=&quot;color: #ff6188;&quot;&gt;//&lt;/span&gt;&lt;span style=&quot;color: #fcfcfa;&quot;&gt;LET vFechaInicio &lt;/span&gt;&lt;span style=&quot;color: #ff6188;&quot;&gt;=&lt;/span&gt;&lt;span style=&quot;color: #fcfcfa;&quot;&gt; &lt;/span&gt;&lt;span style=&quot;color: #939293;&quot;&gt;&#39;&lt;/span&gt;&lt;span style=&quot;color: #ffd866;&quot;&gt;202205&lt;/span&gt;&lt;span style=&quot;color: #939293;&quot;&gt;&#39;&lt;/span&gt;&lt;span style=&quot;color: #fcfcfa;&quot;&gt;; &amp;nbsp; &amp;nbsp;&lt;/span&gt;&lt;span style=&quot;color: #ff6188;&quot;&gt;//&lt;/span&gt;&lt;span style=&quot;color: #fcfcfa;&quot;&gt; Se utiliza en caso de necesitar extraer informaci贸n anterior&lt;/span&gt;&lt;/div&gt;&lt;div&gt;&lt;span style=&quot;color: #fcfcfa;&quot;&gt;LET vFechaFin &lt;/span&gt;&lt;span style=&quot;color: #ff6188;&quot;&gt;=&lt;/span&gt;&lt;span style=&quot;color: #fcfcfa;&quot;&gt; &lt;/span&gt;&lt;span style=&quot;color: #ff6188;&quot;&gt;DATE&lt;/span&gt;&lt;span style=&quot;color: #fcfcfa;&quot;&gt;(ADDMONTHS(vDate, &lt;/span&gt;&lt;span style=&quot;color: #ff6188;&quot;&gt;-&lt;/span&gt;&lt;span style=&quot;color: #ab9df2;&quot;&gt;2&lt;/span&gt;&lt;span style=&quot;color: #fcfcfa;&quot;&gt;), &lt;/span&gt;&lt;span style=&quot;color: #939293;&quot;&gt;&#39;&lt;/span&gt;&lt;span style=&quot;color: #ffd866;&quot;&gt;YYYYMM&lt;/span&gt;&lt;span style=&quot;color: #939293;&quot;&gt;&#39;&lt;/span&gt;&lt;span style=&quot;color: #fcfcfa;&quot;&gt;); &amp;nbsp; &lt;/span&gt;&lt;/div&gt;&lt;div&gt;&lt;span style=&quot;color: #ff6188;&quot;&gt;//&lt;/span&gt;&lt;span style=&quot;color: #fcfcfa;&quot;&gt;LET vFechaFin &lt;/span&gt;&lt;span style=&quot;color: #ff6188;&quot;&gt;=&lt;/span&gt;&lt;span style=&quot;color: #fcfcfa;&quot;&gt; &lt;/span&gt;&lt;span style=&quot;color: #939293;&quot;&gt;&#39;&lt;/span&gt;&lt;span style=&quot;color: #ffd866;&quot;&gt;202201&lt;/span&gt;&lt;span style=&quot;color: #939293;&quot;&gt;&#39;&lt;/span&gt;&lt;span style=&quot;color: #fcfcfa;&quot;&gt;; &lt;/span&gt;&lt;/div&gt;&lt;/div&gt;" style="text;whiteSpace=wrap;html=1;" vertex="1" parent="WIyWlLk6GJQsqaUBKTNV-1">
          <mxGeometry x="670" y="160" width="560" height="290" as="geometry" />
        </mxCell>
        <mxCell id="x3BnDo08FVJliyD5rQEA-8" value="" style="edgeStyle=orthogonalEdgeStyle;rounded=0;orthogonalLoop=1;jettySize=auto;html=1;" edge="1" parent="WIyWlLk6GJQsqaUBKTNV-1" source="x3BnDo08FVJliyD5rQEA-7" target="x3BnDo08FVJliyD5rQEA-6">
          <mxGeometry relative="1" as="geometry" />
        </mxCell>
        <mxCell id="x3BnDo08FVJliyD5rQEA-7" value="Variables definidas" style="text;html=1;strokeColor=none;fillColor=none;align=center;verticalAlign=middle;whiteSpace=wrap;rounded=0;" vertex="1" parent="WIyWlLk6GJQsqaUBKTNV-1">
          <mxGeometry x="870" y="100" width="160" height="30" as="geometry" />
        </mxCell>
        <mxCell id="x3BnDo08FVJliyD5rQEA-9" value="No se realiza la ejecuci贸n" style="whiteSpace=wrap;html=1;rounded=1;glass=0;strokeWidth=1;shadow=0;" vertex="1" parent="WIyWlLk6GJQsqaUBKTNV-1">
          <mxGeometry x="520" y="195" width="120" height="60" as="geometry" />
        </mxCell>
        <mxCell id="x3BnDo08FVJliyD5rQEA-11" value="Yes" style="text;html=1;align=center;verticalAlign=middle;resizable=0;points=[];autosize=1;strokeColor=none;fillColor=none;" vertex="1" parent="WIyWlLk6GJQsqaUBKTNV-1">
          <mxGeometry x="470" y="195" width="40" height="30" as="geometry" />
        </mxCell>
        <mxCell id="x3BnDo08FVJliyD5rQEA-12" value="&lt;div style=&quot;color: rgb(252, 252, 250); background-color: rgb(45, 42, 46); font-family: Consolas, &amp;quot;Courier New&amp;quot;, monospace; font-size: 14px; line-height: 19px;&quot;&gt;Inicia la ejecuci贸n&lt;/div&gt;" style="whiteSpace=wrap;html=1;rounded=1;glass=0;strokeWidth=1;shadow=0;" vertex="1" parent="WIyWlLk6GJQsqaUBKTNV-1">
          <mxGeometry x="160" y="365" width="120" height="60" as="geometry" />
        </mxCell>
      </root>
    </mxGraphModel>
  </diagram>
</mxfile>
